<?xml version="1.0" encoding="utf-8"?>
<!-- Generator: Adobe Illustrator 23.0.1, SVG Export Plug-In . SVG Version: 6.00 Build 0)  -->
<svg version="1.1" id="Layer_1" xmlns="http://www.w3.org/2000/svg" xmlns:xlink="http://www.w3.org/1999/xlink" x="0px" y="0px"
	 viewBox="0 0 39.3 39.3" style="enable-background:new 0 0 39.3 39.3;" xml:space="preserve">
<style type="text/css">
	.st0{fill-rule:evenodd;clip-rule:evenodd;fill:#7C1111;}
</style>
<g transform="translate(-38.624 -18.75)">
	<path class="st0" d="M52.7,36.2l0.4,0.6l0.5,0.8l0.5,0.6l0.4,0.7l0.4,0.7l0.3,0.6l0.3,0.5l0.3,0.4l0.4,0.7l0.5,0.8l0.4,0.8l0.4,0.7
		l0.4,0.7h0.4l0.4-0.7l0.4-0.7l0.4-0.8l0.5-0.8l0.4-0.7l0.3-0.4l0.3-0.5l0.3-0.6l0.4-0.7l0.4-0.7l0.5-0.6l0.5-0.8l0.4-0.6l0.9,0.7
		l0.5-0.7l0.3-0.4l0.4-0.5l0.3-0.4l5.8,0.7v-0.1l-5.4-1l1.6-2.4l4,0.1v-0.1l-3.6-0.4l2.7-3.6l-0.1-0.2l-3.2,3.2l-1.6-3.9H66l1.3,4.1
		l-2,2.5l-2.4-5.6l-0.1,0.1l2.1,5.8l-1.4,2l-0.6-0.2l-0.6-0.2l-0.6-0.2l-0.5-0.2l-0.8-0.6l-0.6-0.6l-0.4-0.6l-0.2-0.8L59,32
		l-0.1-0.9l-0.1-0.7l0.3-1l0.4-0.7l0.5-0.8l0.7-0.7l0.5-0.6l0.9-0.5l0.8-0.4l0.8-0.2l0.8-0.1h0.6l0.6,0.1l0.8,0.2l1.2,0.2l0.9,0.1
		l0.9,0.1h1l1-0.1l1-0.2l1-0.2V26l-0.1,0.6l0.1,0.9l0.2,0.8l0.3,0.9l0.2,0.8l0.3,0.7l0.3,0.7l0.3,0.7l0.1,0.7l0.1,0.6v0.9l-0.2,0.7
		l-0.3,0.9l-0.4,0.9l-0.5,0.7l-0.4,0.5L72.9,39l-0.7,0.5l-0.8,0.4l-0.9,0.3l-1.2,0.1L68.3,40l-0.9-0.4l-1-0.6l-0.7-0.7L65,37.7
		l-0.4-0.6l-0.2-0.2l-0.2,0.3l-0.4,0.6l-0.4,0.7L63,39.2l-0.5,0.8l-0.6,0.7l-0.5,0.8l-0.3,0.7l-0.4,0.7l-0.3,0.4l0.2,0.1l0.3-0.3
		l0.2-0.4l0.3-0.5l0.5-0.6l0.5-0.5l0.6-0.5l0.6-0.7l0.5-0.4l0.5-0.2l0.5,0.1l0.3,0.2l0.3,0.3l0.3,0.3l-0.1,0.5l-0.2,0.5l-0.3,0.3
		l-0.8,0.4l-0.6,0.2l-0.5,0.3L63,42.6l-0.4,0.1L62.2,43l-0.7,0.4L61,43.8L60.7,44l-0.1,0.3l0.2,0.1l0.5-0.1l0.8-0.1L63,44l0.5-0.2
		l0.4-0.1l0.4-0.1l0.4-0.1l0.5-0.2l0.4-0.1l0.5-0.3l0.4-0.1V43c0.1-1.1,1-2,2.2-1.9s2,1,1.9,2.2c-0.1,1.1-1,2-2.2,1.9
		c-1-0.1-1.9-0.9-1.9-1.9l-0.4,0.1l-0.3,0.1l-0.3,0.1l-0.3,0.2l-0.4,0.1l-0.1,0.2l0.1,0.2l0.3,0.2h0.4l0.2,0.1l0.4,0.1l0.4,0.1
		l0.3,0.2l0.4,0.2l0.4,0.2l0.3,0.2l0.3,0.2l0.3,0.2l0.3,0.2l0.2,0.2c0.8-0.8,2.1-0.8,2.9,0c0.8,0.8,0.8,2.1,0,2.9
		c-0.8,0.8-2.1,0.8-2.9,0c-0.7-0.7-0.8-1.9-0.2-2.7l-0.5-0.4L68.1,46l-0.4-0.2l-0.5-0.2l-0.4-0.1l-0.5-0.1l-0.3-0.1l-0.2,0.1
		l0.1,0.2l0.1,0.3v0.2c1.1,0.3,1.8,1.4,1.5,2.5s-1.4,1.8-2.5,1.5s-1.8-1.4-1.5-2.5c0.2-0.9,1-1.5,1.8-1.6l0.2-0.2v-0.3l-0.2-0.2
		l-0.3-0.2l-0.5-0.2H64l-0.6,0.1l-0.6,0.1l-0.7,0.2l-0.6,0.2l-0.6,0.3l-0.5,0.3l-0.4,0.3l-0.3,0.3l-0.3,0.4l-0.2,0.4v0.7l0.1,0.8
		l0.1,0.6l0.2,0.5l0.1,0.5l0.1,0.4h-3.2l0.1-0.4l0.1-0.5l0.2-0.5l0.1-0.6v-1.4l-0.2-0.4l-0.3-0.4l-0.3-0.3l-0.4-0.3l-0.5-0.3
		l-0.6-0.3L54,45.4l-0.7-0.2l-0.6-0.1l-0.6-0.1h-0.6L51,45.2l-0.3,0.2l-0.2,0.2V46l0.2,0.2c1.2,0.1,2,1.1,1.9,2.3s-1.1,2-2.3,1.9
		c-1.2-0.1-2-1.1-1.9-2.3c0.1-0.9,0.7-1.6,1.6-1.9v-0.2l0.1-0.3l0.1-0.2l-0.2-0.1l-0.3,0.1l-0.5,0.1l-0.4,0.1l-0.5,0.2L48,46.1
		l-0.4,0.1l-0.5,0.4c0.3,0.8,0,1.8-0.9,2.1s-1.8,0-2.1-0.9s0-1.8,0.9-2.1c0.7-0.3,1.6,0,2,0.7l0.2-0.2l0.3-0.2l0.3-0.2l0.3-0.2
		l0.3-0.2l0.4-0.2l0.4-0.2l0.3-0.2l0.4-0.1l0.4-0.1l0.2-0.1h0.4l0.3-0.2l0.1-0.2l-0.1-0.2l-0.4-0.1l-0.3-0.2l-0.3-0.1L50,43.3
		l-0.4-0.1c-0.1,1.2-1.1,2.1-2.3,2c-1.2-0.1-2.1-1.1-2-2.3s1.1-2.1,2.3-2c1.1,0.1,2,0.9,2,2v-0.1l0.4,0.1l0.5,0.3l0.4,0.1l0.5,0.2
		l0.4,0.1l0.4,0.1l0.4,0.1l0.5,0.2l0.9,0.2l0.8,0.1l0.5,0.1l0.2-0.1L55.5,44l-0.3-0.2l-0.6-0.4L53.8,43l-0.4-0.3l-0.3-0.2l-0.6-0.2
		L52,42.1l-0.6-0.2l-0.8-0.4l-0.3-0.3L50,40.7v-0.5l0.3-0.3l0.3-0.3l0.3-0.2l0.5-0.1l0.5,0.2l0.5,0.4l0.6,0.7l0.6,0.5l0.5,0.5
		l0.5,0.6l0.3,0.5l0.2,0.4l0.3,0.3l0.2-0.1l-0.3-0.4L55,42.2l-0.3-0.7l-0.5-0.8l-0.5-0.7l-0.5-0.8l-0.5-0.7l-0.4-0.7L52,37.2
		l-0.2-0.3l-0.2,0.2l-0.4,0.6l-0.6,0.6l-0.7,0.7l-1,0.6L48,39.9l-0.9,0.3l-1.2-0.1l-1-0.3l-0.8-0.4l-0.7-0.5l-0.6-0.6l-0.4-0.5
		l-0.6-0.7l-0.4-0.9l-0.3-0.9L41,34.6V33l0.1-0.7l0.3-0.7l0.3-0.7l0.3-0.7l0.2-0.8l0.3-0.9l0.2-0.8l0.1-0.9L42.5,26v-0.7l1,0.2
		l1,0.2l1,0.1h1l0.9-0.1l0.9-0.1l1.1-0.2l0.8-0.2l0.6-0.1h0.6l0.8,0.1l0.8,0.2l0.8,0.4l0.9,0.5l0.5,0.6l0.7,0.7l0.5,0.8l0.4,0.7
		l0.3,1l-0.1,0.7L57.2,32L57,32.8l-0.3,0.8l-0.4,0.6l-0.6,0.6l-0.8,0.6l-0.5,0.2l-0.6,0.2l-0.6,0.2L52.7,36.2l-1.5-2l2.1-5.7
		l-0.1-0.1L50.9,34l-2-2.5l1.3-4.1h-0.1l-1.5,3.9L45.4,28l-0.1,0.2l2.7,3.5l-3.6,0.4v0.1l4-0.1l1.6,2.4l-5.4,1v0.1l5.8-0.7l0.3,0.4
		l0.4,0.5l0.3,0.4l0.5,0.7L52.7,36.2z"/>
</g>
</svg>
